<svg width="38" height="48" xmlns="http://www.w3.org/2000/svg"><defs><linearGradient x1="2.464" y1="1.814" x2="-.049" y2=".125" id="a"><stop offset="0" stop-color="#156EE2"/><stop offset="1" stop-color="#159FE2"/></linearGradient></defs><path d="M18.62 19.206c-6.655 0-12.05 5.362-12.05 11.977 0 6.614 5.395 11.977 12.05 11.977 6.656 0 12.052-5.363 12.052-11.977 0-6.615-5.396-11.977-12.051-11.977zm0 21.78c-5.463 0-9.892-4.403-9.892-9.832 0-5.43 4.43-9.832 9.893-9.832 5.463 0 9.892 4.402 9.892 9.832a9.8 9.8 0 0 1-2.897 6.951 9.923 9.923 0 0 1-6.995 2.88zm0-5.31a4.528 4.528 0 0 1-4.187-2.775 4.48 4.48 0 0 1 .98-4.906 4.548 4.548 0 0 1 4.937-.974 4.499 4.499 0 0 1 2.792 4.162c0 2.481-2.024 4.493-4.521 4.493zm11.418-29.35a1.16 1.16 0 0 0-1.164 1.157 1.16 1.16 0 0 0 1.164 1.157A1.16 1.16 0 0 0 31.2 7.483a1.16 1.16 0 0 0-1.163-1.156zm0 1.955a.803.803 0 0 1-.743-.494.794.794 0 0 1 .177-.87.807.807 0 0 1 .877-.17.798.798 0 0 1-.311 1.534zm2.083-6.263V.821L32.004 0H5.237l-.116.821V2.03H0v45.369l.116.508h8.03l.35-.508h20.273l.35.508h8.006l.116-.508V2.019h-5.12zM2.659 46.606a1.74 1.74 0 0 1-1.745-1.735 1.74 1.74 0 0 1 1.745-1.735 1.74 1.74 0 0 1 1.746 1.735 1.74 1.74 0 0 1-1.746 1.735zm0-5.326a1.74 1.74 0 0 1-1.745-1.735 1.74 1.74 0 0 1 1.745-1.735 1.74 1.74 0 0 1 1.746 1.735 1.73 1.73 0 0 1-.503 1.242 1.75 1.75 0 0 1-1.243.516v-.023zM23.276 1.978h3.387v.925h-3.387v-.925zm-4.248 0h3.375v.925h-3.392l.017-.925zm-4.149 0h3.387v.925h-3.404l.017-.925zm-4.149 0h3.387v.925h-3.404l.017-.925zm-.972 2.377H27.5v9.767H9.74l.018-9.767zm.158 12.723c.45 0 .814.362.814.81 0 .446-.365.809-.814.809a.812.812 0 0 1-.815-.81.812.812 0 0 1 .791-.798l.024-.011zm-2.997 0a.815.815 0 0 1 .757.495.806.806 0 0 1-.173.885.819.819 0 0 1-.889.178.81.81 0 0 1-.504-.749.812.812 0 0 1 .791-.798l.018-.011zM27.553 40.06c-4.264 4.238-10.946 4.892-15.96 1.563C6.58 38.293 4.63 31.907 6.94 26.37c2.308-5.537 8.23-8.682 14.144-7.511 5.914 1.17 10.173 6.33 10.17 12.323a12.436 12.436 0 0 1-3.7 8.877zm2.485-31.067a1.513 1.513 0 0 1-1.398-.928 1.497 1.497 0 0 1 .328-1.64 1.52 1.52 0 0 1 1.648-.325c.566.233.934.781.934 1.39 0 .83-.677 1.503-1.512 1.503z" fill="url(#a)"/></svg>