<svg width="48" height="48" xmlns="http://www.w3.org/2000/svg"><g fill-rule="evenodd"><path d="M24 0c13.255 0 24 10.745 24 24S37.255 48 24 48 0 37.255 0 24 10.745 0 24 0" fill="#D42626"/><path d="M23.999 2.37h.002q.531 0 1.061.026.53.026 1.059.079.528.052 1.054.13.525.077 1.046.181.52.104 1.035.233.515.129 1.023.283.509.154 1.008.333.5.179.99.382.491.203.971.43.48.227.949.477.468.25.923.524.456.272.897.567.442.295.868.612.427.316.837.653t.804.693q.393.357.769.732.375.376.732.77.356.393.693.803.337.41.653.837.317.426.612.868.295.441.567.897.273.455.524.923.25.469.477.949.227.48.43.97.203.49.382.99.18.5.333 1.009.154.508.283 1.023.13.515.233 1.035.104.521.182 1.046.077.526.13 1.054.052.528.078 1.059.026.53.026 1.061v.002q0 .531-.026 1.061-.026.53-.079 1.059-.052.528-.13 1.054-.077.525-.18 1.046-.105.52-.234 1.035-.129.515-.283 1.023-.154.509-.333 1.008-.179.5-.382.99-.203.491-.43.971-.227.48-.477.949-.25.468-.524.923-.272.456-.567.897-.295.442-.612.868-.316.427-.653.837t-.693.804q-.357.393-.732.769-.376.375-.77.732-.393.356-.803.693-.41.337-.837.653-.426.317-.868.612-.441.295-.897.567-.455.273-.923.524-.469.25-.949.477-.48.227-.97.43-.49.203-.99.382-.5.18-1.009.333-.508.154-1.023.283-.515.13-1.035.233-.521.104-1.046.182-.526.077-1.054.13-.528.051-1.059.078-.53.026-1.061.026h-.002q-.53 0-1.061-.026-.53-.027-1.059-.079-.528-.052-1.054-.13-.525-.077-1.046-.18-.52-.105-1.035-.234-.515-.129-1.023-.283-.509-.154-1.008-.333-.5-.179-.99-.382-.491-.203-.971-.43-.48-.227-.949-.477-.468-.25-.923-.524-.456-.272-.897-.567-.442-.295-.868-.612-.427-.316-.837-.653t-.804-.693q-.393-.357-.769-.732-.375-.376-.732-.77-.356-.393-.693-.803-.337-.41-.653-.837-.317-.426-.612-.868-.295-.441-.567-.897-.273-.455-.524-.923-.25-.469-.477-.949-.227-.48-.43-.97-.203-.49-.382-.99-.18-.5-.333-1.009-.154-.508-.283-1.023-.13-.515-.233-1.035-.104-.521-.182-1.046-.077-.526-.13-1.054-.052-.528-.078-1.059-.026-.53-.026-1.061v-.002q0-.53.026-1.061.026-.53.079-1.059.052-.528.13-1.054.077-.525.181-1.046.104-.52.233-1.035.129-.515.283-1.023.154-.509.333-1.008.179-.5.382-.99.203-.491.43-.971.227-.48.477-.949.25-.468.524-.923.272-.456.567-.897.295-.442.612-.868.316-.427.653-.837t.693-.804q.357-.393.732-.769.376-.375.77-.732.393-.356.803-.693.41-.337.837-.653.426-.317.868-.612.441-.295.897-.567.455-.273.923-.524.469-.25.949-.477.48-.227.97-.43.49-.203.99-.382.5-.18 1.009-.333.508-.154 1.023-.283.515-.13 1.035-.233.521-.104 1.046-.182.526-.077 1.054-.13.528-.052 1.059-.078.53-.026 1.061-.026z"/><path d="M32.476 17.199a9.796 9.796 0 0 1-6.087 4.587 9.864 9.864 0 0 1-7.555-1.145 9.96 9.96 0 0 1-2.21-1.845 9.677 9.677 0 0 1-2.01-9.395 9.37 9.37 0 0 1 .66-1.573 9.7 9.7 0 0 1 1.565-2.175 9.79 9.79 0 0 1 1.823-1.505c-5.813 2.949-8.196 9.963-5.368 15.805a12.042 12.042 0 0 0 .143.286c.016.017.02.014.044.014a9.661 9.661 0 0 1 1.083.04c4.443.418 8.044 3.757 8.767 8.13a9.679 9.679 0 0 1-2.24 7.916 9.933 9.933 0 0 1-2.45 2.04 9.893 9.893 0 0 1-7.974.9c1.072.471 2.209.784 3.373.926 1.086.133 2.185.12 3.268-.039a12.057 12.057 0 0 0 8.388-5.43c.012-.02.041-.053.037-.074a.417.417 0 0 0-.051-.095 9.727 9.727 0 0 1-.52-1.14 9.616 9.616 0 0 1-.46-1.63 9.745 9.745 0 0 1 .002-3.615 9.626 9.626 0 0 1 1.051-2.895 9.807 9.807 0 0 1 9.239-5.014 9.818 9.818 0 0 1 8.466 6.106c.155.388.286.786.392 1.19a11.866 11.866 0 0 0-2.543-5.909 12.068 12.068 0 0 0-3.691-3.052 12.012 12.012 0 0 0-5.142-1.41z" fill="#D42626"/></g></svg>