<svg width="45" height="51" xmlns="http://www.w3.org/2000/svg"><path d="M24 42.904v-8.84a8.79 8.79 0 0 0 7.32-8.67 8.089 8.089 0 0 0-.57-3.06l7.67-4.41A17.56 17.56 0 0 1 24 42.904m-8.26-23.09l-7.64-4.42a17.55 17.55 0 0 1 28.81 0l-7.64 4.42a8.72 8.72 0 0 0-13.53 0M21 42.904a17.61 17.61 0 0 1-14.43-25l7.67 4.41a8.902 8.902 0 0 0-.55 3.06 8.79 8.79 0 0 0 7.31 8.69v8.84zm22.2-31.58L24.35.434a4.12 4.12 0 0 0-3.68 0L1.83 11.324A4.08 4.08 0 0 0 0 14.494v21.75a4.11 4.11 0 0 0 1.83 3.19l18.84 10.87a4.1 4.1 0 0 0 3.68 0l18.85-10.87a4.08 4.08 0 0 0 1.8-3.19v-21.75a4.05 4.05 0 0 0-1.81-3.18" fill="#C2143D"/></svg>