<?xml version="1.0" encoding="utf-8"?>
<!-- Generator: Adobe Illustrator 19.2.1, SVG Export Plug-In . SVG Version: 6.00 Build 0)  -->
<svg version="1.1" id="layer" xmlns="http://www.w3.org/2000/svg" xmlns:xlink="http://www.w3.org/1999/xlink" x="0px" y="0px"
	 viewBox="0 0 652 652" style="enable-background:new 0 0 652 652;" xml:space="preserve">
<style type="text/css">
	.st0{fill:#FFFFFF;}
	.st1{fill:#0067A9;}
</style>
<g id="Layer_2">
	<g id="Layer_1-2">
		<path d="M366.2,310.4c4.1-7,11.8-11.9,23.5-11.9c18.6,0,27,12.2,27,26c0,13.7-8.4,26.1-27,26.1c-11.7,0-19.4-4.9-23.5-11.9v10.7
			c-3.8,0-8.1,0.6-12.1,0.6c-8,0-16.9-1.2-16.9-14.8v-23.7h-8.3v0c0.2,2.2,0.3,4.3,0.3,6.5v20.3c0,3.7,0.2,7.9,2.3,11.1h-19.3
			c-0.5-1.5-0.7-3.1-0.7-4.7h-0.2c-4,4.6-9.8,5.9-16,5.9c-9.6,0-17.5-4.6-17.5-15c0-15.7,18.3-15.1,28-16.9c2.6-0.5,5.2-1.2,5.2-4.4
			c0-3.3-3.2-4.6-6.2-4.6c-5.8,0-7,3-7.1,5.1h-17.5v1.2c-2.4-0.9-4.9-1.3-7.5-1.2c-7.4,0-11.4,4.4-11.4,15v19.6h-18.9v-20.5h-35.7
			c0.5,5.6,3.7,9.6,9.6,9.6c3.1,0,6.4-1.1,7.9-3.5h17.7c-3.8,10.7-14.2,15.7-25.5,15.7c-12.6,0-22.8-5.9-26.4-16.7v0.2
			c-0.6,13-13.4,16.6-25.2,16.6c-11.7,0-24.4-4.7-24.7-17.5h18c0.1,1.7,0.9,3.3,2.3,4.4c1,0.9,2.8,1.4,5.1,1.4c2.5,0,6.4-1,6.4-3.8
			c0-2.9-1.6-3.7-10.4-5.2c-14.4-2.5-20.2-7.1-20.2-15.6c0-12.5,13.5-15.8,23.4-15.8c10.7,0,23.6,3,24.1,15.7h-17.2
			c-0.1-1.5-0.9-2.9-2.2-3.7c-1.2-0.9-2.7-1.4-4.2-1.4c-2.7,0-5.7,0.6-5.7,3.8c0,1.4,1.1,2.1,2.2,2.6c3.1,1.3,10.3,1.7,16.6,3.8
			c4.4,1.4,8.5,3.7,10.5,7.7v0.1c-0.1-0.8-0.1-1.5-0.1-2.3c0-14.4,10.5-26.2,26.2-26.2c16.8,0,25.5,8,27.6,22.5v-0.2v-21h18.1v7.9
			h0.2c3.1-5.9,7.1-9.2,13.9-9.2c1.9,0,3.7,0.3,5.5,0.8v14.5v0.2c1-13.3,13.9-15.5,25.4-15.5c17.7,0,22.1,5.5,23.1,12.2v-11h8.4
			v-15.1h18.9v15.1h10.1L366.2,310.4z M224.8,319c0.1-4.5-3.5-8.2-8-8.3c-0.1,0-0.2,0-0.3,0c-5.6,0-8.9,3-9.7,8.3H224.8z M311,327.1
			c-2.4,1.1-4.9,1.9-7.5,2.4c-4.2,1-6.4,2-6.4,5.3c0,2.3,2.5,4.6,5.9,4.6c4.3,0,7.6-2.6,7.9-7.7L311,327.1z M356.1,311.5v17.3
			c0,4.6,1,6.6,5.8,6.6c0.9,0,1.8,0,2.6-0.1l0,0c-1.3-3.4-1.9-7.1-1.9-10.7c0-4.5,1-9,3-13H356.1z M389.7,312.3
			c-7.2,0-8.1,7-8.1,12.2s1,12.3,8.1,12.3s8.1-7.1,8.1-12.3S396.8,312.3,389.7,312.3"/>
		<path class="st0" d="M72.8,272.9c-26.5,0-48,21.5-48,48s21.5,48,48,48c26.5,0,48-21.5,48-48C120.8,294.3,99.3,272.9,72.8,272.9
			C72.8,272.9,72.8,272.9,72.8,272.9z"/>
		<path class="st1" d="M72.8,268.3c-29,0-52.5,23.5-52.5,52.5c0,0.8,0,1.6,0.1,2.5c1.2,26.9,23.1,48.8,50,50
			c29,1.4,53.6-20.9,55.1-49.9c1.4-29-20.9-53.6-49.9-55.1C74.6,268.3,73.7,268.3,72.8,268.3"/>
		<path class="st0" d="M111.8,327.6c-1.4,0-2.6-1.2-2.6-2.6v-8.3c0-1.2,0.7-2.2,1.8-2.6c1.4-0.5,2.9,0.3,3.3,1.6
			c0.1,0.3,0.1,0.6,0.1,0.8v8.4C114.4,326.5,113.2,327.6,111.8,327.6"/>
		<path class="st0" d="M103,336.3c0,1.6-1.3,2.9-2.9,2.9c-0.4,0-0.8-0.1-1.2-0.3c-1-0.5-1.6-1.5-1.6-2.6v-8.7
			c-0.2-1.8-1.7-3.1-3.5-3c-1.6,0.1-2.8,1.4-3,3v20.8c0,1.4-0.8,2.6-2.1,3c-1.7,0.6-3.5-0.3-4.2-2c-0.1-0.3-0.2-0.6-0.2-1v-6.5
			c-0.1-2-1.8-3.5-3.8-3.5c-0.2,0-0.4,0-0.6,0.1c-1.7,0.4-2.9,1.9-2.8,3.7v19.2c0,2-1.3,3.8-3.3,4.2c-2.2,0.5-4.4-1-4.9-3.2
			c-0.1-0.3-0.1-0.6-0.1-0.8v-19.5c0-2-1.6-3.6-3.6-3.7c-2,0-3.6,1.6-3.7,3.6v6.4c-0.1,1.8-1.6,3.2-3.4,3.1c-1.7-0.1-3-1.5-3.1-3.1
			v-20.8c0-1.8-1.5-3.3-3.3-3.3c-0.2,0-0.4,0-0.6,0.1c-1.6,0.3-2.7,1.8-2.7,3.4v8.4c0,1.6-1.3,2.9-2.8,2.9c-1.6,0-2.9-1.3-2.9-2.8
			l0,0v-30.9c0-1.6,1.3-2.9,2.8-2.9s2.9,1.3,2.9,2.8l0,0v8.4c0,1.6,1.1,3,2.7,3.4c1.8,0.3,3.5-0.8,3.8-2.6c0-0.2,0.1-0.4,0.1-0.6
			v-20.8c0-1.2,0.7-2.4,1.8-2.9c1.6-0.8,3.6-0.1,4.3,1.5c0.2,0.4,0.3,0.8,0.3,1.3v6.4c0,2,1.7,3.6,3.7,3.6c2,0,3.6-1.7,3.6-3.7l0,0
			v-19.5c0-1.6,0.9-3.1,2.4-3.8c2.1-1,4.5,0,5.5,2c0.3,0.6,0.4,1.1,0.4,1.8v19.4c0,1.7,1.1,3.3,2.8,3.7c2,0.4,3.9-0.8,4.3-2.8
			c0-0.2,0.1-0.4,0.1-0.6v-6.5c0.1-1.8,1.6-3.2,3.4-3.1c0.3,0,0.6,0.1,0.9,0.2c1.3,0.5,2.1,1.7,2.1,3V314c0.2,1.8,1.7,3.1,3.5,3
			c1.6-0.1,2.8-1.4,3-3v-8.6c0-1.1,0.6-2.1,1.6-2.6c1.4-0.7,3.2-0.1,3.9,1.4c0.2,0.4,0.3,0.8,0.3,1.2L103,336.3z"/>
		<path class="st0" d="M36.5,325c0,1.5-1.2,2.6-2.6,2.6c-0.2,0-0.3,0-0.5,0c-1.3-0.3-2.2-1.4-2.1-2.7v-8.1c0-1.3,0.9-2.4,2.1-2.7
			c1.4-0.3,2.8,0.7,3.1,2.1c0,0.2,0,0.3,0,0.5V325z"/>
		<path class="st1" d="M72.8,316.4c-2.5,0-4.5,2-4.5,4.5c0,2.5,2,4.5,4.5,4.5c2.5,0,4.5-2,4.5-4.5C77.3,318.4,75.3,316.4,72.8,316.4
			"/>
		<path d="M529.9,300h21.1c1.5,0,3.1,0.2,4.6,0.5c1.7,0.3,3.3,1,4.7,2c1.5,1.1,2.8,2.5,3.6,4.2c1,1.8,1.5,4.2,1.5,7.2
			c0,4.3-1.3,7.7-4,10.1c-2.7,2.4-6.5,3.5-11.5,3.5h-16.9v22h-3V300z M532.9,324.8h17.4c1.9,0.1,3.9-0.3,5.6-1
			c1.4-0.6,2.7-1.5,3.7-2.6c0.9-1,1.6-2.2,2-3.5c0.4-1.3,0.6-2.6,0.6-3.9c0-1.1-0.2-2.2-0.4-3.3c-0.3-1.3-0.9-2.6-1.7-3.7
			c-0.9-1.2-2.1-2.3-3.5-3c-1.5-0.8-3.5-1.3-6-1.3H533L532.9,324.8z"/>
		<path d="M573,321.7h0.2c0.3-1.2,1-2.3,1.8-3.3c0.9-1,1.9-1.9,3.1-2.6c1.3-0.8,2.6-1.3,4.1-1.7c1.5-0.4,3.1-0.6,4.7-0.5v2.6
			c-1.6-0.2-3.2,0-4.7,0.4c-1.9,0.6-3.7,1.6-5.1,3.1c-0.6,0.6-1.2,1.3-1.7,2c-0.5,0.7-0.9,1.4-1.2,2.1c-0.3,0.8-0.6,1.7-0.8,2.6
			c-0.2,1.1-0.3,2.3-0.3,3.5v19.5h-2.6v-35.6h2.6L573,321.7z"/>
		<path d="M587.6,331.7c0-2.4,0.3-4.8,1.1-7.2c0.7-2.2,1.7-4.2,3.2-5.9c1.4-1.7,3.1-3.1,5.1-4.1c4.5-2,9.5-2,14,0
			c2,1,3.7,2.3,5.1,4.1c1.4,1.8,2.5,3.8,3.2,5.9c0.7,2.3,1.1,4.7,1.1,7.2c0,2.4-0.3,4.9-1.1,7.2c-0.7,2.2-1.7,4.2-3.2,5.9
			c-1.4,1.7-3.1,3.1-5.1,4c-4.5,2-9.5,2-14,0c-2-1-3.7-2.3-5.1-4c-1.4-1.8-2.5-3.8-3.2-5.9C587.9,336.5,587.6,334.1,587.6,331.7z
			 M590.2,331.7c0,2.1,0.3,4.1,0.9,6.1c0.6,1.9,1.5,3.7,2.6,5.2c1.1,1.5,2.6,2.8,4.3,3.6c3.7,1.8,8.1,1.8,11.8,0
			c1.7-0.9,3.1-2.1,4.3-3.6c1.2-1.6,2.1-3.3,2.6-5.2c1.2-4,1.2-8.3,0-12.3c-0.6-1.9-1.5-3.7-2.6-5.2c-1.1-1.5-2.6-2.8-4.3-3.6
			c-3.7-1.8-8.1-1.8-11.8,0c-1.7,0.9-3.1,2.1-4.3,3.6c-1.2,1.6-2.1,3.3-2.6,5.2C590.5,327.5,590.2,329.6,590.2,331.7z"/>
		<path d="M436.4,300h16.2c4.4,0,8.1,0.7,11,2.1c2.8,1.2,5.2,3.2,7,5.5c1.8,2.3,3,5,3.7,7.9c0.7,3,1.1,6.1,1.1,9.1
			c0,3.3-0.4,6.6-1.3,9.8c-0.8,2.9-2.3,5.6-4.2,7.9c-2,2.3-4.4,4.1-7.2,5.2c-3.3,1.3-6.8,2-10.3,1.9h-16.1V300z M452.8,346.8
			c2.4,0,4.7-0.3,7-1c2.3-0.7,4.5-2,6.3-3.6c2-1.9,3.6-4.2,4.6-6.8c1.2-2.8,1.8-6.4,1.8-10.7c0.1-2.9-0.3-5.8-1-8.7
			c-0.6-2.1-1.4-4.2-2.6-6.1c-1-1.5-2.2-2.8-3.7-3.9c-1.4-0.9-2.8-1.7-4.4-2.2c-1.5-0.5-3-0.8-4.5-1c-1.3-0.2-2.7-0.2-4.1-0.2h-12.7
			v44.2L452.8,346.8z"/>
		<path d="M493.3,348c2.8,0,5-0.5,6.5-1.4c1.4-0.8,2.5-2.1,3.2-3.5c0.7-1.5,1-3.2,1.1-4.8c0.1-1.8,0.1-3.5,0.1-5.2v-33h3v34.1
			c0,1,0,2.1,0,3.3c0,1.2-0.2,2.4-0.4,3.6c-0.3,1.2-0.7,2.4-1.2,3.5c-0.5,1.2-1.3,2.2-2.3,3.1c-1.1,1-2.4,1.7-3.8,2.2
			c-1.9,0.6-3.8,0.9-5.8,0.8c-3.3,0-5.9-0.5-7.8-1.6c-1.8-0.9-3.2-2.4-4.2-4.1c-0.9-1.7-1.5-3.6-1.7-5.5c-0.2-1.9-0.3-3.8-0.3-5.7h3
			c-0.1,1.8-0.1,3.6,0.1,5.3c0.1,1.6,0.6,3.1,1.4,4.5c0.8,1.4,1.9,2.5,3.3,3.2C488.9,347.6,490.8,348,493.3,348z"/>
	</g>
</g>
</svg>
