<svg width="49" height="48" xmlns="http://www.w3.org/2000/svg"><defs><linearGradient y1=".5" x2="1" y2=".5" id="a"><stop offset="0" stop-color="#AB1F23"/><stop offset="1" stop-color="#EC1D24"/></linearGradient></defs><path d="M.25 20.543C1.3 11.27 9.083 1.843 20.522.242A24.972 24.972 0 0 1 23.979 0c11.552-.001 21.538 8.143 23.65 19.842.247 1.365.37 2.726.377 4.069v.252c-.066 12.125-9.53 22.813-22.003 23.762C13.04 48.913 1.96 39.99.15 27.104a6.234 6.234 0 0 1-.048-.425A36.726 36.726 0 0 1 0 24.05v-.077c.002-2.267.25-3.43.25-3.43zM23.697 4.198c-10.936.116-19.71 9.147-19.59 20.161.12 10.846 9.025 19.571 19.927 19.572h.18c10.907-.097 19.733-9.114 19.627-20.052-.106-10.998-9.115-19.8-20.144-19.681zM12.363 14.371c-.199-.126-.386-.27-.618-.432 3.048-3.795 7.558-5.679 12.056-5.679 4.512 0 9.012 1.895 12.016 5.659-.121.1-.236.214-.368.299-1.784 1.143-3.577 2.273-5.352 3.428-.338.22-.55.203-.867-.052-3.338-2.67-7.525-2.687-10.835-.04-.36.286-.596.31-.982.055-1.67-1.098-3.366-2.16-5.05-3.238zm7.462 9.66L9.543 30.75c-2.013-4.526-2.02-8.925-.01-13.461l10.292 6.744zm18.495 6.662l-10.206-6.657c3.492-2.29 6.834-4.48 10.177-6.67 2.064 3.268 2.223 9.482.03 13.327zm-2.54 3.402c-5.561 7.263-17.703 7.813-24.007.017 2.066-1.323 4.086-2.62 6.043-3.874.909.548 1.714 1.173 2.62 1.553 3.125 1.308 6.06.874 8.717-1.227.394-.311.64-.327 1.042-.062 1.849 1.213 3.719 2.397 5.584 3.593z" fill="#D42626" fill-rule="evenodd"/></svg>